<?xml version="1.0" encoding="UTF-8" standalone="no"?><!DOCTYPE svg PUBLIC "-//W3C//DTD SVG 1.1//EN" "http://www.w3.org/Graphics/SVG/1.1/DTD/svg11.dtd"><svg width="100%" height="100%" viewBox="0 0 567 435" version="1.1" xmlns="http://www.w3.org/2000/svg" xmlns:xlink="http://www.w3.org/1999/xlink" xml:space="preserve" style="fill-rule:evenodd;clip-rule:evenodd;stroke-linecap:round;stroke-miterlimit:9;"><g id="Laptop-SVG"><path d="M306.587,9.055l198.761,160.241l-198.761,160.241l-198.76,-160.241l198.76,-160.241Z" style="fill:none;stroke:#fff;stroke-opacity:0.0823529;stroke-width:2px;stroke-dasharray:18,18,0,0;"/><g id="Laptop"><g id="Laptop1"><path id="Screen-Back" d="M193.363,236.555l0,-169.693l245.112,81.452c0,0 0.667,170.931 0,171.202c-0.667,0.27 -245.112,-82.961 -245.112,-82.961Z" style="fill:#fff;"/><path d="M193.363,66.862l8.296,-4.526l243.604,81.453l-6.788,4.525l-245.112,-81.452Z" style="fill:#eceef4;"/><g><path id="Keyboard-Shell" d="M47.346,352.7l146.313,-74.665l245.113,82.961l-145.559,73.157l-245.867,-81.453Z" style="fill:#2b2e36;fill-opacity:0.196078;"/><path id="Keyboard-Shell1" d="M47.05,311.219l146.313,-74.664l245.112,82.961l-145.559,73.156l-245.866,-81.453Z" style="fill:#edf0f7;"/><path id="Keyboard-Shell2" d="M104.836,308.028l103.113,-52.62l172.74,58.466l-102.581,51.557l-173.272,-57.403Z" style="fill:#d7deed;"/><path d="M47.05,311.221c0,5.399 3.468,10.187 8.598,11.871c43.499,14.277 237.268,77.876 237.268,77.876l0,-8.296l-245.866,-81.453c0,0 0,0.001 0,0.002Z" style="fill:url(#_Linear1);"/><path d="M292.916,392.672l0,8.296l145.559,-76.173l0,-5.279l-145.559,73.156Z" style="fill:#d2e0f4;"/></g><path d="M438.475,148.314l0,171.202c0,0 1.86,-1.86 3.633,-3.633c2.02,-2.02 3.155,-4.76 3.155,-7.617c0,-26.727 0,-164.477 0,-164.477l-6.788,4.525Z" style="fill:#fdfdfd;"/><path id="Screen-Front" d="M202.413,230.521l0,-150.838l227.766,75.419l0,149.33l-227.766,-73.911Z" style="fill:#20183b;"/></g><g id="Signals"><g><rect x="253.942" y="138.183" width="3.713" height="80.2" style="fill:#4674ba;"/><rect x="354.192" y="194.156" width="3.713" height="28.291" style="fill:#4674ba;"/><rect x="354.192" y="170.3" width="3.713" height="30.93" style="fill:#3942a8;"/><rect x="305.181" y="155.262" width="3.713" height="30.075" style="fill:#3942a8;"/><rect x="305.181" y="181.624" width="3.713" height="30.075" style="fill:#dceafe;"/><path d="M255.036,163.206l-1.094,3.548l27.847,8.588l1.094,-3.548l-27.847,-8.588Z" style="fill:#4674ba;"/><path d="M308.131,156.523l-1.094,3.548l50.358,15.53l1.095,-3.548l-50.359,-15.53Z" style="fill:#3942a8;"/><path d="M285.864,173.201l-1.095,3.548l27.847,8.588l1.095,-3.548l-27.847,-8.588Z" style="fill:#dceafe;"/><rect x="253.942" y="185.337" width="3.713" height="37.872" style="fill:#fff;"/><circle cx="255.799" cy="140.782" r="7.797" style="fill:#4674ba;"/><circle cx="255.799" cy="166.03" r="7.797" style="fill:#4674ba;"/><circle cx="255.799" cy="191.278" r="7.797" style="fill:#fff;"/><circle cx="281.789" cy="173.827" r="7.797" style="fill:#dceafe;"/><circle cx="307.037" cy="181.624" r="7.797" style="fill:#dceafe;"/><circle cx="356.048" cy="196.541" r="7.797" style="fill:#4674ba;"/><circle cx="356.048" cy="217.418" r="7.797" style="fill:#4674ba;"/><circle cx="307.037" cy="206.872" r="7.797" style="fill:#dceafe;"/><circle cx="307.037" cy="158.233" r="7.797" style="fill:#3942a8;"/><circle cx="331.543" cy="166.03" r="7.797" style="fill:#3942a8;"/><circle cx="356.048" cy="173.827" r="7.797" style="fill:#3942a8;"/><circle cx="255.799" cy="216.526" r="7.797" style="fill:#fff;"/></g></g></g><g id="Command-Line"><path d="M110.091,82.53l0,111.527l-110.091,21.152l0,-110.566l110.091,-22.113Z" style="fill:#fff;fill-opacity:0.196078;"/><path d="M121.101,92.144l0,111.527l-110.09,21.152l0,-110.566l110.09,-22.113Z" style="fill:#191231;fill-opacity:0.345098;"/><path d="M138.447,98.726l0,111.528l-110.09,21.151l0,-110.565l110.09,-22.114Z" style="fill:#20183b;"/><path d="M28.357,120.84l0,17.707l110.09,-21.553l0,-17.866l-110.09,21.712Z" style="fill:#191231;"/><path d="M57.808,121.004c1.857,-0.042 3.398,1.432 3.44,3.288c0.042,1.857 -1.432,3.398 -3.289,3.44c-1.856,0.042 -3.398,-1.431 -3.439,-3.288c-0.042,-1.857 1.431,-3.398 3.288,-3.44Z" style="fill:#7cc241;"/><path d="M47.278,123.164c1.857,-0.041 3.398,1.432 3.44,3.289c0.042,1.857 -1.432,3.398 -3.288,3.44c-1.857,0.042 -3.399,-1.432 -3.44,-3.289c-0.042,-1.856 1.431,-3.398 3.288,-3.44Z" style="fill:#facc39;"/><path d="M36.748,125.325c1.857,-0.042 3.398,1.432 3.44,3.288c0.042,1.857 -1.432,3.398 -3.288,3.44c-1.857,0.042 -3.398,-1.431 -3.44,-3.288c-0.042,-1.857 1.431,-3.398 3.288,-3.44Z" style="fill:#ef4e4e;"/></g><g><path d="M493.669,98.026l0,111.527l73.147,21.152l0,-110.566l-73.147,-22.113Z" style="fill:#fff;fill-opacity:0.196078;"/><path d="M486.353,107.641l0,111.527l73.147,21.151l0,-110.565l-73.147,-22.113Z" style="fill:#191231;fill-opacity:0.345098;"/><path d="M547.975,246.901l0,-111.527l-73.147,-21.151l0,110.565l73.147,22.113Z" style="fill:url(#_Linear2);"/><g><path d="M515.899,154.899l-1.339,22.495l21.872,1.374c-0.084,-11.695 -3.058,-21.792 -20.533,-23.869Z" style="fill:#4576bb;"/><path d="M509.734,161.281c-12.065,-0.798 -22.51,8.607 -23.33,21.005c-0.819,12.39 8.305,23.096 20.362,23.893c12.066,0.797 22.511,-8.607 23.331,-21.005l-21.847,-1.444l1.484,-22.449Z" style="fill:#4576bb;"/></g></g></g><defs><linearGradient id="_Linear1" x1="0" y1="0" x2="1" y2="0" gradientUnits="userSpaceOnUse" gradientTransform="matrix(217.961,72.4023,-72.4023,217.961,69.6758,323.286)"><stop offset="0" style="stop-color:#d2e0f4;stop-opacity:1"/><stop offset="1" style="stop-color:#dceafe;stop-opacity:1"/></linearGradient><linearGradient id="_Linear2" x1="0" y1="0" x2="1" y2="0" gradientUnits="userSpaceOnUse" gradientTransform="matrix(50.6713,105.589,-105.589,50.6713,486.353,128.984)"><stop offset="0" style="stop-color:#20183b;stop-opacity:1"/><stop offset="0.52" style="stop-color:#31255b;stop-opacity:1"/><stop offset="1" style="stop-color:#372a66;stop-opacity:1"/></linearGradient></defs></svg>