<?xml version="1.0" encoding="UTF-8" standalone="no"?><!DOCTYPE svg PUBLIC "-//W3C//DTD SVG 1.1//EN" "http://www.w3.org/Graphics/SVG/1.1/DTD/svg11.dtd"><svg width="100%" height="100%" viewBox="0 0 551 390" version="1.1" xmlns="http://www.w3.org/2000/svg" xmlns:xlink="http://www.w3.org/1999/xlink" xml:space="preserve" style="fill-rule:evenodd;clip-rule:evenodd;stroke-linecap:round;stroke-linejoin:round;stroke-miterlimit:1.5;"><g id="Slack-Channel"><rect x="112.597" y="0" width="438.277" height="389.507" style="fill:#fff;"/><g id="Sidebar"><rect x="0" y="0" width="112.597" height="389.507" style="fill:#4d394b;"/></g><g id="Title-Section"><g><rect x="14.605" y="15.076" width="83.388" height="13.819" style="fill:#fff;fill-opacity:0.352941;"/></g><rect x="33.135" y="40.07" width="46.798" height="2.042" style="fill:#fff;fill-opacity:0.352941;"/><ellipse cx="22.928" cy="41.091" rx="4.397" ry="4.476" style="fill:#52b98c;"/></g><rect id="Channel-Title" x="14.84" y="73.205" width="83.388" height="5.967" style="fill:#fff;fill-opacity:0.352941;"/><rect id="Direct-Message-Title" x="14.605" y="239.799" width="83.388" height="5.967" style="fill:#fff;fill-opacity:0.352941;"/><g id="Channel-Bars"><rect id="CB-1" x="19.865" y="90.008" width="46.798" height="2.042" style="fill:#fff;fill-opacity:0.352941;"/><rect id="CB-2" x="19.865" y="107.44" width="46.798" height="2.042" style="fill:#fff;fill-opacity:0.352941;"/><rect id="CB-3" x="19.865" y="124.871" width="46.798" height="2.042" style="fill:#fff;fill-opacity:0.352941;"/><rect id="CB-4" x="19.865" y="140.653" width="46.798" height="2.042" style="fill:#fff;fill-opacity:0.352941;"/><rect id="CB-6" x="19.826" y="175.202" width="46.798" height="2.042" style="fill:#fff;fill-opacity:0.352941;"/><rect id="CB-7" x="19.826" y="192.633" width="46.798" height="2.042" style="fill:#fff;fill-opacity:0.352941;"/><rect id="CB-5" x="19.826" y="157.535" width="46.798" height="2.042" style="fill:#fff;fill-opacity:0.352941;"/><rect id="CB-8" x="19.826" y="210.065" width="46.798" height="2.042" style="fill:#fff;fill-opacity:0.352941;"/></g><g id="Direct-Message-Bars"><rect x="34.47" y="260.999" width="46.798" height="2.042" style="fill:#fff;fill-opacity:0.352941;"/><rect x="34.47" y="278.431" width="46.798" height="2.042" style="fill:#fff;fill-opacity:0.352941;"/><rect x="34.47" y="295.862" width="46.798" height="2.042" style="fill:#fff;fill-opacity:0.352941;"/><rect x="34.47" y="349.148" width="46.798" height="2.042" style="fill:#fff;fill-opacity:0.352941;"/><rect x="34.47" y="313.293" width="46.798" height="2.042" style="fill:#fff;fill-opacity:0.352941;"/><rect x="34.47" y="366.579" width="46.798" height="2.042" style="fill:#fff;fill-opacity:0.352941;"/><rect x="34.47" y="330.725" width="46.798" height="2.042" style="fill:#fff;fill-opacity:0.352941;"/></g><path id="Active-Channel" d="M86.45,141.672c0,-0.79 -0.314,-1.549 -0.873,-2.108c-0.56,-0.559 -1.318,-0.874 -2.109,-0.874c-15.214,0 -83.468,0 -83.468,0l0,5.968c0,0 68.254,0 83.468,0c0.791,0 1.549,-0.314 2.109,-0.873c0.559,-0.56 0.873,-1.318 0.873,-2.109c0,-0.001 0,-0.002 0,-0.004Z" style="fill:#52b98c;"/><g id="Direct-Messages"><ellipse id="DM-1" cx="24.263" cy="262.02" rx="4.397" ry="4.476" style="fill:#52b98c;"/><ellipse id="DM-2" cx="24.263" cy="279.451" rx="4.397" ry="4.476" style="fill:#52b98c;"/><ellipse id="DM-3" cx="24.263" cy="296.883" rx="4.397" ry="4.476" style="fill:#52b98c;"/><ellipse id="DM-6" cx="24.263" cy="350.169" rx="4.397" ry="4.476" style="fill:#52b98c;"/><ellipse id="DM-4" cx="24.263" cy="314.314" rx="4.397" ry="4.476" style="fill:#52b98c;"/><ellipse id="DM-7" cx="24.263" cy="367.6" rx="4.397" ry="4.476" style="fill:#52b98c;"/><ellipse id="DM-5" cx="24.263" cy="331.745" rx="4.397" ry="4.476" style="fill:#52b98c;"/></g><rect id="Input" x="137.331" y="340.507" width="388.81" height="28" style="fill:none;stroke:#b1b3b5;stroke-width:1.5px;"/></g></svg>